<svg version="1.0" xmlns="http://www.w3.org/2000/svg"
 width="256.000000pt" height="256.000000pt" viewBox="0 0 256.000000 256.000000"
 preserveAspectRatio="xMidYMid meet">
<style type="text/css">
	.st0{fill:#515151;}
</style>

<g transform="translate(0.000000,256.000000) scale(0.100000,-0.100000)"
fill="#000000" stroke="none">
<path d="M786 1883 l-290 -3 -73 -35 c-41 -19 -85 -35 -98 -35 -29 0 -225
-191 -225 -219 0 -10 -3 -21 -7 -24 -4 -4 -18 -38 -32 -75 -20 -56 -25 -89
-28 -201 -4 -120 -2 -139 17 -184 12 -27 30 -76 40 -108 16 -50 32 -70 116
-153 70 -69 104 -96 121 -96 14 0 44 -9 67 -21 22 -12 54 -27 69 -35 23 -11
94 -14 347 -14 305 0 320 1 330 19 5 11 10 74 10 141 0 123 -14 189 -42 191
-7 0 -126 0 -264 -1 l-252 -1 -33 28 c-19 16 -49 35 -66 42 -26 10 -39 28 -64
79 -33 71 -35 117 -8 196 19 54 94 129 145 144 57 17 455 17 502 0 32 -12 35
-11 58 15 23 27 24 34 24 173 0 131 -2 146 -20 164 -11 11 -28 19 -37 18 -10
-2 -148 -4 -307 -5z m330 -49 c-3 -9 -6 -76 -6 -150 0 -127 -1 -134 -20 -134
-11 0 -20 5 -20 10 0 6 -90 10 -249 10 -156 0 -252 -4 -256 -10 -3 -5 -17 -10
-31 -10 -14 0 -27 -7 -30 -15 -4 -8 -11 -15 -18 -15 -14 0 -46 -36 -46 -51 0
-6 -8 -9 -19 -6 -14 3 -17 0 -14 -14 3 -11 0 -19 -6 -19 -6 0 -11 -16 -11 -35
0 -24 -5 -35 -15 -35 -12 0 -15 -16 -15 -80 0 -67 3 -80 16 -80 12 0 15 -8 12
-34 -3 -24 0 -32 9 -29 8 3 13 -3 13 -16 0 -12 6 -21 15 -21 8 0 15 -5 15 -11
0 -23 28 -39 59 -33 24 5 31 3 31 -10 0 -9 -7 -16 -16 -16 -8 0 -12 -4 -9 -10
3 -6 17 -10 30 -10 13 0 27 -5 30 -10 4 -6 103 -10 266 -10 191 0 259 -3 259
-12 0 -6 3 -8 7 -4 5 4 -1 14 -11 22 -19 14 -19 14 2 14 22 0 22 -3 22 -134 0
-74 3 -142 7 -152 5 -14 3 -16 -12 -10 -11 4 -156 7 -323 6 -268 0 -304 1
-299 15 4 8 3 14 -1 14 -34 -5 -72 3 -72 16 0 9 -9 15 -25 15 -14 0 -25 5 -25
10 0 7 -13 8 -35 4 -23 -4 -35 -2 -35 5 0 6 5 11 10 11 6 0 10 5 10 10 0 6 -7
10 -15 10 -8 0 -15 5 -15 10 0 6 -7 10 -15 10 -8 0 -15 7 -15 15 0 8 -5 15
-11 15 -13 0 -39 25 -39 38 0 6 -14 13 -31 17 -27 6 -30 10 -24 36 5 22 3 29
-9 29 -11 0 -16 9 -16 30 0 17 -4 30 -10 30 -5 0 -10 16 -10 35 0 24 -5 35
-15 35 -13 0 -15 23 -15 150 0 127 2 150 15 150 10 0 15 11 15 35 0 19 5 35
10 35 6 0 10 14 10 30 0 21 5 30 16 30 12 0 14 7 9 29 -6 26 -3 30 24 36 17 4
31 11 31 17 0 13 26 38 39 38 6 0 11 7 11 15 0 8 7 15 15 15 8 0 15 5 15 10 0
6 10 10 23 10 20 1 21 2 5 14 -28 21 -21 29 17 22 22 -4 35 -3 35 4 0 5 13 10
30 10 22 0 28 4 24 15 -5 11 1 15 24 15 18 0 35 7 40 15 7 14 45 16 300 13
161 -2 292 0 292 5 0 4 12 7 26 7 20 0 25 -4 20 -16z"/>
<path d="M1093 1705 c0 -44 2 -61 4 -37 2 23 2 59 0 80 -2 20 -4 1 -4 -43z"/>
<path d="M1093 850 c0 -41 2 -58 4 -37 2 20 2 54 0 75 -2 20 -4 3 -4 -38z"/>
<path d="M1870 1787 c-26 -9 -38 -20 -46 -45 -5 -18 -31 -52 -57 -76 -41 -38
-47 -48 -47 -84 0 -35 8 -50 56 -106 31 -36 64 -66 74 -66 10 0 42 -20 71 -45
29 -25 55 -45 58 -45 3 0 17 -16 30 -35 13 -19 41 -43 63 -52 33 -15 45 -28
64 -72 46 -103 27 -167 -81 -270 l-63 -61 -70 0 c-65 0 -74 3 -115 34 -25 19
-59 42 -75 50 -16 8 -37 27 -46 41 -10 15 -32 33 -49 40 -18 7 -43 25 -57 40
-14 15 -36 32 -50 39 -21 9 -5 11 92 14 113 3 118 4 138 29 18 23 20 40 20
163 0 124 -2 140 -21 164 l-20 26 -495 0 c-345 0 -502 -3 -517 -11 -50 -26
-57 -45 -57 -182 l0 -129 29 -29 29 -29 286 0 286 0 0 -25 c0 -25 -7 -33 -64
-79 -27 -21 -30 -29 -27 -72 3 -65 59 -152 102 -161 19 -4 35 -16 45 -35 8
-16 30 -36 47 -43 18 -7 47 -29 66 -49 19 -19 48 -38 65 -42 17 -4 45 -17 62
-30 17 -13 34 -24 38 -24 4 0 31 -11 59 -24 110 -51 344 -51 454 0 28 13 54
24 57 24 16 0 142 99 181 142 104 116 137 205 142 385 3 86 0 140 -7 153 -6
12 -18 46 -26 77 -8 30 -23 67 -33 82 -10 14 -28 44 -39 66 -30 59 -117 145
-146 145 -15 0 -33 12 -50 35 -15 19 -38 38 -51 41 -13 3 -36 21 -50 40 -14
19 -38 37 -53 40 -15 4 -50 19 -78 35 -56 32 -72 34 -124 16z m94 -42 c3 -8
12 -15 21 -15 8 0 15 -4 15 -10 0 -5 9 -10 20 -10 12 0 20 -7 21 -17 0 -11 3
-13 6 -5 7 17 43 15 43 -2 0 -8 -6 -17 -12 -19 -7 -3 -2 -6 11 -6 16 -1 21 -5
17 -16 -3 -9 0 -15 9 -15 8 0 15 -4 15 -10 0 -5 13 -7 30 -3 23 4 30 2 30 -10
0 -8 -6 -18 -12 -20 -8 -3 -6 -6 5 -6 9 -1 17 -8 17 -16 0 -8 9 -15 20 -15 11
0 20 -5 20 -10 0 -6 11 -8 25 -4 31 8 67 -22 44 -37 -11 -7 -9 -9 9 -9 12 0
22 -4 22 -10 0 -5 7 -10 15 -10 8 0 15 -7 15 -15 0 -8 5 -15 10 -15 6 0 10 -4
10 -10 0 -5 -8 -7 -17 -3 -11 3 -8 -4 10 -19 15 -14 27 -33 27 -42 0 -9 7 -16
15 -16 9 0 15 -9 15 -25 0 -14 5 -25 10 -25 6 0 10 -20 10 -45 0 -33 4 -45 15
-45 13 0 15 -23 15 -145 0 -122 -2 -145 -15 -145 -11 0 -15 -11 -15 -40 0 -22
-4 -40 -10 -40 -5 0 -10 -11 -10 -25 0 -16 -6 -25 -15 -25 -8 0 -15 -9 -15
-20 0 -11 -4 -20 -10 -20 -5 0 -10 -7 -10 -15 0 -8 -7 -15 -15 -15 -8 0 -15
-5 -15 -11 0 -17 -77 -89 -95 -89 -8 0 -15 -4 -15 -10 0 -5 -7 -10 -15 -10 -8
0 -15 -7 -15 -15 0 -9 -9 -15 -25 -15 -14 0 -25 -4 -25 -10 0 -5 -13 -10 -30
-10 -19 0 -30 -5 -30 -14 0 -10 -18 -16 -67 -20 -38 -3 -90 -8 -116 -12 -31
-4 -53 -2 -60 5 -6 6 -39 11 -74 11 -49 0 -63 3 -63 15 0 10 -10 15 -30 15
-16 0 -30 5 -30 10 0 6 -11 10 -25 10 -16 0 -25 6 -25 15 0 8 -7 15 -15 15 -8
0 -15 4 -15 9 0 5 -21 12 -46 16 -39 5 -45 9 -41 26 3 12 0 19 -9 19 -8 0 -14
5 -14 10 0 6 -7 10 -15 10 -8 0 -15 6 -15 13 0 9 -10 12 -30 9 -18 -3 -30 0
-30 7 0 6 6 11 13 11 7 1 5 6 -5 14 -10 7 -18 18 -18 25 0 6 -7 11 -16 11 -8
0 -13 4 -10 9 3 5 -10 7 -29 4 -21 -3 -35 0 -35 6 0 6 5 11 10 11 6 0 10 5 10
10 0 6 -7 10 -15 10 -8 0 -15 5 -15 10 0 6 -7 10 -16 10 -13 0 -15 8 -12 40 2
22 0 40 -4 40 -5 0 -8 7 -8 15 0 8 9 15 19 15 30 0 51 11 51 26 0 8 5 14 10
14 6 0 10 7 10 15 0 8 5 15 11 15 7 0 9 10 5 25 l-6 25 57 -6 c32 -4 62 -13
66 -20 4 -8 15 -14 22 -14 8 0 15 -4 15 -9 0 -4 12 -6 26 -3 23 4 25 2 19 -17
-5 -15 -2 -21 9 -21 9 0 16 -4 16 -10 0 -5 7 -10 15 -10 8 0 15 -8 16 -17 0
-11 3 -13 6 -5 7 17 43 15 43 -2 0 -8 -6 -17 -12 -19 -7 -3 -3 -6 10 -6 12 -1
22 -7 22 -16 0 -8 7 -15 15 -15 8 0 15 -4 15 -10 0 -5 14 -10 30 -10 17 0 30
-4 30 -10 0 -5 -7 -10 -15 -10 -8 0 -15 -4 -15 -9 0 -5 9 -7 20 -4 11 3 20 0
20 -6 0 -6 11 -11 25 -11 16 0 25 -6 25 -15 0 -8 8 -15 18 -16 16 -1 143 0
170 1 6 0 12 7 12 16 0 12 6 15 25 10 18 -5 25 -2 25 9 0 8 8 15 18 16 10 0
12 3 5 6 -18 7 -16 33 2 33 8 0 15 7 15 15 0 8 7 15 16 15 23 0 44 25 44 54 0
16 6 26 15 26 12 0 15 16 15 80 0 64 -3 80 -15 80 -10 0 -15 10 -15 30 0 17
-5 30 -11 30 -6 0 -9 9 -6 20 3 11 2 18 -2 15 -5 -2 -17 3 -27 13 -10 9 -29
16 -41 14 -16 -2 -23 2 -23 12 0 9 -7 16 -15 16 -8 0 -15 5 -15 10 0 6 5 10
10 10 6 0 10 5 10 10 0 6 -7 10 -15 10 -8 0 -15 5 -15 10 0 6 -11 10 -25 10
-16 0 -25 6 -25 15 0 8 -5 15 -11 15 -14 0 -39 25 -39 39 0 6 -9 11 -20 11
-11 0 -20 4 -20 9 0 4 -12 6 -27 3 -23 -4 -25 -2 -20 17 3 11 1 24 -4 27 -5 3
-7 10 -3 15 3 5 2 9 -3 8 -31 -5 -55 2 -49 17 3 8 2 12 -4 9 -6 -3 -10 2 -10
12 0 10 -3 28 -6 41 -5 16 -2 22 10 22 9 0 16 5 16 10 0 6 7 10 16 10 15 0 44
23 44 35 0 3 12 17 26 30 26 24 26 25 5 25 -11 0 -21 5 -21 11 0 7 10 9 25 7
14 -3 25 -1 25 3 0 16 58 10 64 -6z m-224 -465 l0 -150 -509 0 c-455 0 -510 2
-515 16 -10 27 -7 266 4 259 6 -3 7 1 4 9 -6 14 47 16 505 16 l511 0 0 -150z"/>
</g>

</svg>