<?xml version="1.0" standalone="no"?>
<!DOCTYPE svg PUBLIC "-//W3C//DTD SVG 20010904//EN"
 "http://www.w3.org/TR/2001/REC-SVG-20010904/DTD/svg10.dtd">
<svg version="1.0" xmlns="http://www.w3.org/2000/svg"
 width="310.000000pt" height="310.000000pt" viewBox="0 0 310.000000 310.000000"
 preserveAspectRatio="xMidYMid meet">
<metadata>
Created by potrace 1.11, written by Peter Selinger 2001-2013
</metadata>
<g transform="translate(0.000000,310.000000) scale(0.100000,-0.100000)"
fill="#000000" stroke="none">
<path d="M661 2190 c-1 -20 -3 -22 -11 -10 -8 13 -11 13 -19 1 -5 -8 -19 -12
-35 -9 -14 3 -23 2 -21 -2 3 -5 -2 -11 -11 -14 -8 -3 -12 -2 -9 4 3 6 -1 7 -9
4 -9 -3 -14 -10 -11 -14 3 -4 -2 -11 -11 -14 -8 -3 -12 -2 -9 4 11 18 -4 11
-26 -12 -12 -13 -19 -17 -14 -10 11 20 -36 -8 -53 -31 -8 -10 -20 -16 -28 -13
-8 3 -14 0 -14 -7 -1 -7 -15 -21 -33 -33 -18 -11 -31 -26 -30 -32 2 -7 -2 -12
-8 -12 -17 0 -41 -29 -33 -41 4 -8 3 -9 -5 -5 -6 4 -14 0 -18 -10 -3 -10 -15
-26 -25 -36 -10 -10 -16 -23 -13 -28 4 -6 1 -10 -5 -10 -6 0 -8 -4 -5 -10 3
-5 -1 -10 -11 -10 -13 0 -14 -3 -5 -14 9 -11 8 -15 -5 -20 -9 -4 -14 -13 -10
-21 3 -9 -1 -15 -11 -15 -13 0 -13 -3 -3 -15 10 -12 10 -15 0 -15 -7 0 -10 -7
-6 -15 3 -8 1 -15 -4 -15 -6 0 -10 -5 -10 -11 0 -5 5 -7 10 -4 16 10 12 0 -10
-25 -14 -16 -17 -27 -10 -34 14 -14 13 -29 -2 -20 -9 5 -9 2 1 -9 10 -13 10
-17 1 -17 -8 0 -10 -8 -6 -25 4 -15 2 -25 -5 -25 -6 0 -3 -7 6 -16 9 -10 12
-20 8 -23 -5 -3 -9 -16 -9 -28 0 -18 3 -20 15 -10 12 10 13 9 2 -10 -6 -13 -7
-23 -2 -23 5 0 8 -13 7 -29 -1 -17 2 -27 8 -24 5 4 7 -1 3 -10 -4 -10 -1 -17
6 -17 8 0 8 -3 -2 -9 -11 -7 -9 -10 8 -16 15 -5 19 -10 12 -18 -6 -8 -5 -21 4
-37 8 -14 14 -21 15 -16 0 12 29 -26 30 -38 0 -6 -7 -1 -15 10 -14 18 -15 17
-4 -8 7 -15 15 -26 18 -25 3 1 7 -2 8 -7 1 -5 14 -17 30 -28 16 -11 20 -17 9
-14 -12 4 -4 -8 20 -32 21 -21 42 -37 47 -35 4 2 7 -3 7 -11 0 -9 6 -16 14
-16 8 0 18 -5 22 -12 5 -7 3 -8 -6 -3 -8 5 -11 4 -6 -3 3 -6 15 -9 26 -7 12 2
18 0 15 -6 -4 -5 -1 -9 5 -9 6 0 8 -5 4 -12 -4 -6 -3 -8 4 -4 6 3 22 1 37 -6
19 -8 22 -14 13 -20 -9 -6 -5 -7 10 -3 13 4 22 2 22 -4 0 -6 3 -10 8 -10 17 3
33 -2 29 -8 -3 -5 5 -8 16 -9 65 -3 87 -9 87 -24 0 -13 1 -13 10 0 5 8 10 10
10 5 0 -12 40 -13 57 -2 7 4 15 3 18 -3 4 -6 16 -8 27 -4 11 3 18 2 15 -3 -3
-5 3 -9 13 -9 10 0 17 4 14 7 -6 10 38 5 55 -6 10 -5 12 -4 7 3 -4 7 -3 12 3
12 5 0 13 -5 16 -10 5 -8 11 -8 20 0 10 8 14 7 18 -2 4 -9 6 -9 6 -1 1 8 10 9
30 3 19 -5 33 -4 40 3 9 9 14 8 21 -3 7 -10 10 -11 10 -2 0 6 5 12 11 12 5 0
7 -6 3 -12 -6 -10 -4 -10 8 0 13 10 17 10 21 0 3 -8 6 -9 6 -2 1 8 12 9 35 4
22 -5 38 -4 46 4 8 8 13 7 20 -4 7 -10 10 -11 10 -2 0 6 5 12 11 12 5 0 7 -6
3 -12 -6 -10 -4 -10 7 0 17 16 32 16 23 0 -5 -10 -4 -10 6 -1 7 6 19 9 28 5
12 -4 14 -1 9 12 -6 14 -3 17 10 12 14 -6 14 -4 -3 15 -10 12 -14 19 -7 16 6
-4 14 -3 18 3 3 5 1 10 -5 10 -7 0 -7 7 1 23 10 19 10 20 -2 10 -11 -9 -14 -7
-14 12 0 13 3 21 6 19 4 -2 10 3 13 12 3 8 2 12 -4 9 -6 -3 -10 -1 -10 5 0 6
-6 8 -12 4 -8 -4 -10 -3 -5 2 5 5 13 10 18 10 5 1 12 2 16 3 4 0 -2 8 -13 17
-10 8 -14 13 -8 10 7 -3 15 1 18 10 3 8 2 12 -4 9 -6 -3 -10 3 -10 14 0 12 -5
21 -11 21 -5 0 -7 -5 -3 -11 4 -7 -3 -6 -17 2 -13 7 -30 12 -38 10 -8 -1 -10
2 -5 10 4 8 3 10 -5 5 -6 -4 -9 -12 -6 -17 4 -5 1 -9 -4 -9 -6 0 -11 5 -11 10
0 6 -5 10 -11 10 -5 0 -8 -3 -6 -8 3 -4 -8 -7 -23 -7 -16 -1 -27 2 -25 5 2 3
-6 12 -18 20 -21 12 -21 12 -7 -5 14 -17 13 -18 -3 -12 -11 4 -16 3 -12 -3 3
-6 1 -10 -4 -10 -6 0 -11 4 -11 9 0 5 -7 12 -16 15 -13 5 -14 3 -6 -6 8 -10 4
-13 -18 -13 -16 -1 -26 3 -23 8 3 5 -4 6 -16 2 -17 -5 -20 -3 -15 12 5 14 4
15 -4 3 -6 -8 -8 -18 -6 -22 3 -4 0 -8 -5 -8 -6 0 -11 5 -11 10 0 6 -5 10 -11
10 -5 0 -8 -3 -6 -8 3 -4 -8 -7 -23 -7 -16 -1 -26 3 -24 7 6 10 -10 11 -20 1
-11 -11 -46 -14 -46 -3 0 12 -22 9 -33 -5 -4 -6 -15 -1 -27 14 -11 13 -20 19
-20 13 0 -12 -53 -10 -62 3 -5 6 -8 5 -8 -3 0 -7 -5 -10 -10 -7 -6 4 -7 12 -3
18 4 7 0 6 -10 -2 -11 -8 -17 -9 -17 -3 0 6 -10 16 -21 23 -17 9 -20 8 -13 -3
6 -10 5 -11 -8 -1 -8 7 -18 11 -21 8 -4 -3 -5 -2 -2 1 5 8 -20 34 -33 34 -6 0
-13 7 -16 16 -3 8 -10 12 -16 9 -5 -3 -10 3 -10 15 0 12 -5 18 -10 15 -6 -3
-10 -1 -10 5 0 6 -11 23 -24 37 -13 14 -22 31 -20 38 3 6 -2 17 -10 24 -8 7
-13 18 -10 26 3 7 1 16 -5 19 -7 5 -7 15 -1 31 6 17 6 25 -1 25 -12 0 -8 32 6
43 6 5 -1 5 -15 2 -14 -3 -20 -3 -14 2 6 4 10 16 8 25 -1 10 2 20 7 24 5 3 7
10 4 15 -4 5 -2 9 3 9 6 0 10 6 9 13 0 6 1 25 1 41 2 25 4 27 19 15 13 -11 15
-11 9 -1 -9 15 20 82 35 82 6 0 7 5 4 10 -3 6 1 10 10 10 9 0 14 4 10 9 -3 6
4 15 15 21 11 6 18 15 15 20 -3 5 4 7 15 5 11 -2 18 0 15 6 -4 5 -1 9 5 9 6 0
8 4 5 10 -3 6 1 7 9 4 9 -3 16 -1 16 5 0 6 5 11 11 11 5 0 7 -5 3 -12 -5 -7
-3 -8 5 -4 7 5 10 15 6 25 -5 13 -4 14 6 4 15 -15 33 -17 25 -4 -3 5 1 12 10
15 10 4 13 2 8 -7 -5 -9 -4 -9 6 0 7 6 19 9 28 6 11 -5 13 -2 7 8 -6 11 -5 12
5 2 11 -10 16 -9 27 5 8 9 12 12 9 6 -7 -15 47 -15 56 0 6 8 8 7 8 -1 0 -7 7
-13 16 -13 9 0 12 5 8 13 -6 9 -4 9 8 -1 13 -10 17 -10 21 0 4 10 6 10 6 1 1
-7 8 -13 17 -13 8 0 13 3 11 8 -3 4 5 7 18 7 13 0 21 -3 19 -6 -2 -4 7 -9 21
-11 13 -3 22 -1 19 3 -3 5 0 9 5 9 6 0 11 -5 11 -11 0 -7 11 -4 26 6 15 9 23
12 20 6 -4 -6 0 -11 9 -11 9 0 14 3 12 8 -3 4 5 7 18 7 13 0 21 -3 19 -6 -2
-4 7 -9 21 -11 13 -3 22 -1 19 3 -3 5 0 9 5 9 6 0 11 -5 11 -11 0 -7 11 -4 26
6 15 9 23 12 20 6 -4 -6 -4 -11 1 -12 53 -5 60 -4 55 11 -5 13 -4 13 14 0 10
-8 16 -10 12 -6 -11 13 12 37 26 29 6 -3 2 4 -9 17 -11 13 -15 20 -8 17 6 -4
14 -3 18 3 3 5 1 10 -5 10 -7 0 -7 7 1 23 l12 22 -24 -20 c-17 -15 -20 -15
-10 -3 7 10 11 25 7 33 -3 9 -2 14 3 11 5 -3 11 1 15 9 3 8 0 17 -6 21 -7 5
-8 2 -3 -6 6 -9 4 -11 -5 -5 -11 7 -11 10 2 19 14 8 13 12 -6 28 l-21 19 24
-11 c19 -10 22 -10 15 2 -5 7 -9 20 -9 28 0 8 -6 14 -13 12 -7 -1 -22 2 -32 8
-11 6 -20 7 -20 2 0 -4 -9 -8 -20 -9 -12 -1 -18 3 -14 9 4 6 -1 6 -14 -1 -26
-14 -45 -14 -37 -1 4 7 -3 7 -20 0 -33 -13 -38 -13 -29 1 5 8 1 8 -14 0 -27
-14 -35 -14 -26 2 6 9 4 9 -8 -1 -13 -10 -17 -10 -21 0 -4 10 -6 10 -6 -1 -1
-11 -4 -11 -16 -1 -8 7 -15 8 -15 3 0 -5 -9 -9 -20 -10 -12 -1 -18 3 -14 9 4
6 -1 6 -14 -1 -26 -14 -45 -14 -37 -1 4 7 -3 7 -20 0 -33 -13 -38 -13 -29 1 5
8 1 8 -14 0 -27 -14 -35 -14 -26 2 6 9 4 9 -8 -1 -12 -9 -18 -10 -23 -2 -4 6
-12 7 -18 3 -15 -10 -38 -10 -54 0 -6 4 -15 2 -19 -4 -5 -8 -3 -9 7 -4 8 5 11
4 6 -1 -13 -14 -31 -11 -39 6 -5 10 -7 7 -7 -10z m84 -1029 c-9 -8 -36 -10
-30 -2 2 4 11 8 20 8 8 0 13 -3 10 -6z"/>
<path d="M2330 2074 c0 -8 -4 -13 -8 -10 -4 2 -14 1 -22 -5 -11 -6 -11 -9 -2
-9 10 0 10 -3 0 -14 -7 -8 -16 -12 -20 -9 -5 2 -8 -3 -8 -11 0 -9 -9 -25 -19
-35 -11 -11 -16 -23 -13 -27 4 -4 -1 -4 -10 -1 -13 4 -15 2 -11 -10 4 -9 2
-14 -3 -10 -6 3 -15 -3 -22 -13 -7 -11 -8 -21 -2 -25 5 -3 7 -12 4 -19 -3 -8
0 -17 7 -22 8 -4 10 -3 5 4 -4 7 -1 12 9 12 9 0 14 -4 10 -9 -3 -6 5 -15 17
-22 13 -6 31 -21 41 -33 10 -11 16 -15 12 -7 -5 9 1 8 19 -4 30 -20 33 -27 9
-19 -10 3 -7 -1 7 -9 14 -9 29 -13 34 -9 5 3 7 -2 3 -11 -3 -9 -3 -16 1 -14
11 3 82 -41 82 -53 0 -5 7 -10 15 -10 8 0 15 -4 15 -10 0 -5 7 -10 16 -10 9 0
12 -5 8 -12 -5 -8 -2 -9 9 -5 10 4 16 2 14 -6 -1 -7 6 -12 15 -12 9 0 20 -4
25 -9 5 -5 2 -6 -7 -1 -8 5 1 -7 20 -26 19 -20 37 -34 40 -33 4 2 12 -7 20
-19 12 -21 12 -21 -5 -7 -18 14 -18 13 0 -11 11 -15 24 -25 29 -22 5 3 7 -8 4
-25 -3 -21 -1 -29 8 -25 15 5 27 -28 18 -51 -3 -9 -1 -16 5 -16 6 0 9 -16 8
-37 -1 -21 2 -44 6 -50 5 -9 2 -13 -9 -13 -16 0 -16 -1 2 -16 10 -8 14 -13 7
-10 -6 4 -14 2 -18 -4 -3 -5 -1 -10 5 -10 7 0 8 -6 2 -17 -5 -10 -8 -26 -7
-35 2 -9 -3 -19 -11 -22 -8 -3 -14 -14 -12 -23 2 -10 -2 -17 -8 -16 -7 1 -10
-6 -7 -17 4 -16 2 -19 -11 -14 -12 5 -15 2 -9 -12 5 -13 3 -15 -8 -9 -12 8
-12 6 0 -9 8 -9 10 -16 5 -15 -21 4 -34 -2 -31 -13 1 -7 -6 -12 -15 -12 -10 1
-17 -1 -16 -5 2 -19 -3 -31 -12 -26 -5 3 -10 1 -10 -4 0 -6 -7 -11 -16 -11 -8
0 -13 -4 -9 -9 3 -6 -4 -8 -15 -6 -19 4 -25 -6 -20 -30 1 -5 -4 -5 -11 2 -9 9
-15 8 -27 -3 -10 -10 -18 -12 -25 -5 -5 5 -16 7 -24 4 -12 -5 -12 -7 -1 -14 9
-6 6 -8 -9 -7 -14 2 -19 7 -16 18 3 11 2 11 -6 -2 -7 -11 -20 -15 -36 -12 -16
3 -25 0 -25 -8 0 -10 -2 -10 -8 -1 -4 7 -27 13 -50 14 -26 2 -47 9 -52 18 -6
10 -10 11 -10 4 0 -7 -7 -10 -16 -6 -8 3 -13 11 -10 19 3 8 -2 11 -15 9 -10
-2 -19 1 -19 6 0 6 -4 8 -9 5 -5 -3 -11 1 -15 9 -3 8 -11 15 -17 15 -6 0 -20
9 -30 21 -9 11 -20 20 -23 20 -20 -3 -26 1 -26 15 0 8 -4 13 -8 10 -5 -3 -14
3 -22 14 -7 10 -20 16 -28 12 -9 -3 -13 -1 -9 5 4 6 -1 17 -10 24 -14 12 -16
12 -9 -1 4 -9 1 -8 -7 2 -8 10 -19 18 -26 18 -6 0 -11 5 -11 10 0 6 -7 10 -15
10 -8 0 -15 7 -15 16 0 11 -5 14 -16 10 -11 -4 -18 1 -21 14 -3 11 -9 17 -14
14 -5 -3 -9 0 -9 6 0 6 -5 8 -12 4 -7 -4 -8 -3 -4 4 8 13 -28 35 -39 24 -5 -4
-5 1 -2 11 6 15 3 17 -14 12 -16 -5 -19 -4 -14 5 5 9 4 11 -4 6 -6 -4 -8 -12
-5 -18 5 -7 2 -9 -8 -5 -21 8 -30 -3 -17 -20 11 -12 2 -18 -23 -14 -5 0 -7 -2
-6 -7 4 -13 -23 -53 -32 -47 -6 3 -7 -1 -4 -9 4 -11 -2 -19 -17 -25 -14 -6
-17 -10 -9 -11 12 0 11 -3 -3 -11 -9 -6 -14 -15 -11 -21 5 -8 1 -9 -11 -4 -14
5 -16 4 -7 -7 7 -8 9 -17 6 -20 -4 -4 3 -5 14 -2 15 2 19 0 15 -11 -5 -12 7
-19 30 -15 4 0 7 -4 7 -9 0 -6 8 -10 18 -10 14 0 15 -2 2 -10 -12 -8 -11 -10
8 -10 12 0 22 -6 22 -14 0 -8 11 -17 25 -20 14 -4 23 -11 20 -16 -3 -6 3 -10
14 -10 19 0 26 -10 22 -32 0 -5 4 -8 9 -8 6 0 10 5 10 10 0 6 8 2 18 -7 11
-10 17 -22 14 -27 -3 -5 0 -6 7 -2 7 5 20 -1 30 -13 10 -12 23 -21 29 -21 6 0
14 -5 18 -12 5 -7 3 -8 -6 -3 -8 5 -11 4 -6 -3 4 -6 14 -8 23 -5 11 4 14 3 9
-5 -4 -7 -2 -12 4 -12 11 0 24 -9 60 -42 11 -10 20 -12 22 -6 2 5 10 2 18 -8
13 -16 13 -17 0 -9 -9 5 -12 5 -7 -1 5 -5 12 -9 15 -9 4 0 13 -4 20 -8 7 -5
12 -4 12 3 0 6 5 8 10 5 6 -4 7 -11 4 -17 -4 -6 -2 -8 3 -5 6 4 16 0 23 -8 10
-12 16 -13 26 -4 9 7 14 8 14 1 0 -14 48 -21 54 -8 2 6 5 0 6 -14 1 -14 4 -19
7 -12 4 10 8 10 19 1 10 -8 14 -8 14 -1 0 6 6 9 13 7 6 -3 33 -7 59 -9 34 -3
46 -1 41 7 -4 7 1 6 10 -2 9 -7 17 -9 17 -4 0 10 40 10 57 0 6 -4 16 0 23 8 7
8 16 12 21 9 5 -3 9 1 10 8 0 7 4 4 9 -7 8 -18 9 -18 9 -2 1 10 6 15 11 12 6
-3 10 0 10 7 0 9 3 9 10 -2 7 -12 10 -12 10 -1 0 7 6 11 14 8 8 -3 17 1 20 9
3 8 10 14 16 14 6 0 8 -6 5 -12 -4 -7 3 -2 15 12 12 14 18 18 14 11 -5 -9 4
-6 23 7 17 12 34 18 38 14 5 -4 5 -1 1 6 -5 9 -1 15 13 19 12 3 21 12 21 19 0
8 4 14 10 14 5 0 7 -8 4 -17 -3 -10 2 -6 11 10 8 15 20 27 26 27 6 0 7 4 4 10
-3 5 1 10 10 10 10 0 13 5 9 12 -5 8 -2 9 10 5 10 -4 15 -3 11 3 -3 6 -2 10 4
10 6 0 7 7 4 17 -4 9 -2 14 3 11 5 -3 15 0 22 8 7 8 10 14 7 14 -3 0 5 12 19
27 20 22 23 30 13 42 -9 12 -9 13 1 7 7 -4 12 -2 12 4 0 6 5 8 12 4 7 -4 8 -3
4 5 -4 6 -2 19 6 28 11 14 11 16 -2 8 -12 -7 -13 -6 -3 7 7 8 9 19 5 24 -4 4
0 3 9 -4 13 -10 15 -6 14 33 0 30 4 46 13 50 12 4 12 8 1 22 -8 9 -9 14 -3 10
7 -4 14 0 18 8 3 8 -3 19 -12 24 -14 9 -14 10 -2 11 17 0 22 40 5 40 -5 0 -1
7 9 15 11 8 15 15 8 15 -7 0 -11 18 -9 52 1 34 -3 53 -11 56 -10 3 -10 7 0 20
10 12 10 14 1 8 -13 -7 -17 3 -14 37 1 9 -3 17 -9 17 -7 0 -9 8 -5 20 4 14 2
20 -6 18 -8 -2 -14 9 -15 26 -2 16 -8 33 -15 36 -6 4 -9 12 -5 18 3 6 1 14 -5
18 -8 5 -9 3 -4 -7 5 -10 5 -11 -3 -4 -5 6 -12 19 -14 30 -2 11 -8 20 -15 20
-6 0 -15 4 -20 9 -5 5 -3 6 5 2 6 -4 12 -2 12 3 0 6 -7 11 -16 11 -8 0 -12 5
-9 10 3 6 1 10 -5 10 -6 0 -8 4 -5 10 3 6 -1 7 -10 4 -11 -5 -14 -2 -9 12 4
11 3 15 -1 11 -5 -4 -15 3 -22 15 -7 13 -12 17 -13 10 0 -17 -30 11 -30 28 0
6 -5 8 -10 5 -6 -3 -13 1 -16 9 -3 9 -11 16 -18 16 -6 0 -17 9 -24 20 -7 12
-17 18 -22 15 -6 -3 -10 1 -10 9 0 8 -10 16 -22 18 -14 2 -22 9 -20 18 2 8 0
12 -4 8 -4 -4 -15 1 -25 13 -12 14 -18 16 -22 7 -4 -9 -6 -7 -6 4 -1 9 -10 20
-21 23 -11 4 -18 10 -15 15 3 5 -3 7 -14 5 -15 -3 -18 0 -14 12 4 9 2 14 -3
11 -5 -4 -20 0 -34 9 -14 8 -17 12 -7 9 31 -10 18 5 -18 20 -19 8 -34 19 -32
25 1 6 -8 13 -20 15 -16 3 -23 -1 -23 -12z"/>
<path d="M923 1675 c-12 -5 -22 -19 -23 -30 0 -11 0 -27 -1 -35 -1 -8 1 -26 5
-39 5 -14 4 -21 -1 -18 -5 4 -10 0 -10 -8 0 -8 5 -15 10 -15 6 0 7 -3 4 -6 -3
-4 -2 -16 4 -27 7 -12 7 -17 1 -13 -5 3 -13 -2 -16 -11 -4 -9 -1 -20 5 -24 7
-4 9 -15 5 -24 -5 -15 -4 -16 9 -5 12 10 15 10 15 -1 0 -12 2 -12 9 0 5 8 11
9 15 3 7 -11 24 -11 44 1 7 5 12 4 12 -2 0 -6 5 -11 11 -11 5 0 8 4 5 9 -8 12
27 8 36 -4 5 -6 8 -6 8 1 0 6 7 11 15 11 8 0 15 -5 15 -11 0 -6 5 -4 10 4 9
13 11 13 20 0 8 -12 10 -12 10 -1 0 10 3 11 14 2 11 -9 16 -9 21 0 6 8 10 7
16 -2 7 -11 9 -11 9 1 0 13 1 13 10 0 5 -8 10 -10 10 -5 0 6 9 11 20 11 11 0
20 -4 20 -8 0 -5 9 -4 20 2 15 8 20 8 20 -2 0 -8 3 -9 8 -3 11 15 32 17 32 3
0 -9 4 -8 11 2 8 11 12 12 16 3 2 -7 9 -13 14 -13 6 0 7 5 4 10 -8 13 18 8 27
-5 5 -6 8 -5 8 4 0 11 3 11 15 1 12 -10 15 -10 15 1 0 11 2 11 10 -1 5 -8 10
-10 10 -4 0 6 7 11 15 11 8 0 12 -4 9 -9 -7 -11 3 -10 27 2 14 8 19 7 19 -2 0
-8 3 -9 8 -3 11 15 32 17 32 3 0 -10 2 -10 9 0 4 8 12 14 16 14 4 0 12 -6 16
-14 5 -7 9 -8 9 -2 0 14 30 14 30 0 0 -6 5 -4 11 4 8 11 12 12 16 3 2 -7 9
-13 14 -13 6 0 7 5 4 10 -8 13 18 8 27 -5 5 -6 8 -5 8 4 0 11 3 11 15 1 12
-10 15 -10 15 1 0 11 2 11 10 -1 5 -8 10 -10 10 -4 0 6 7 11 15 11 8 0 12 -4
9 -9 -7 -11 3 -10 27 2 14 8 19 7 19 -2 0 -8 3 -9 8 -3 11 15 32 17 32 2 0 -8
4 -7 11 3 8 11 12 12 16 3 2 -7 9 -13 14 -13 6 0 7 5 3 11 -4 8 0 8 15 0 16
-9 21 -9 21 0 0 8 4 9 13 0 10 -8 17 -7 25 1 7 7 12 8 12 2 0 -16 36 -11 39 6
1 8 2 39 2 68 0 36 4 50 11 46 7 -4 8 -2 4 5 -4 6 -11 9 -16 6 -4 -3 -10 2
-13 10 -4 9 -1 12 9 8 10 -4 12 0 8 11 -3 9 0 23 7 32 10 12 10 15 -1 12 -7
-2 -15 3 -18 11 -2 8 0 11 5 8 5 -3 9 2 9 12 0 13 -6 16 -23 13 -15 -3 -23 1
-23 9 0 11 -2 11 -10 -1 -8 -12 -10 -12 -10 -1 0 11 -3 11 -14 2 -11 -9 -20
-10 -36 -1 -11 6 -25 8 -31 4 -19 -11 -79 -12 -79 0 0 7 -3 7 -8 1 -11 -15
-32 -17 -32 -2 0 8 -4 7 -10 -3 -6 -10 -10 -11 -10 -2 0 6 -5 12 -11 12 -5 0
-7 -6 -3 -12 6 -10 4 -10 -8 0 -13 10 -17 10 -21 0 -4 -10 -8 -10 -16 2 -10
13 -11 13 -11 0 0 -13 -1 -13 -10 0 -9 13 -11 13 -20 0 -6 -9 -13 -11 -17 -5
-11 13 -36 18 -28 5 3 -5 1 -10 -4 -10 -6 0 -11 5 -11 12 0 9 -3 9 -12 0 -13
-13 -32 -16 -24 -4 2 4 -4 8 -14 8 -10 0 -16 -4 -14 -8 3 -4 0 -8 -5 -8 -6 0
-11 4 -11 8 0 5 -7 9 -15 9 -8 0 -12 -4 -9 -9 3 -4 0 -8 -5 -8 -6 0 -11 5 -11
11 0 5 -5 7 -12 3 -19 -12 -128 -11 -128 1 0 5 -4 4 -9 -3 -4 -8 -12 -14 -16
-14 -4 0 -12 6 -16 14 -7 10 -9 10 -9 -2 0 -13 -2 -13 -9 -1 -8 12 -12 12 -25
2 -13 -11 -16 -11 -16 0 0 11 -2 11 -10 -1 -9 -13 -10 -13 -10 0 0 13 -1 13
-10 0 -8 -13 -10 -13 -10 -1 0 12 -3 12 -12 3 -13 -13 -32 -16 -24 -4 2 4 -4
8 -14 8 -10 0 -16 -4 -14 -8 3 -4 0 -8 -5 -8 -6 0 -11 5 -11 11 0 8 -6 7 -17
-2 -15 -12 -16 -12 -8 1 8 13 7 13 -8 1 -13 -10 -17 -10 -17 -1 0 10 -3 10
-15 0 -12 -10 -15 -10 -15 1 0 10 -3 10 -12 1 -13 -13 -32 -16 -24 -4 2 4 -4
8 -14 8 -10 0 -16 -4 -14 -8 3 -4 0 -8 -5 -8 -6 0 -11 4 -11 8 0 5 -7 9 -15 9
-8 0 -12 -4 -9 -9 3 -4 1 -8 -5 -8 -5 0 -11 3 -13 8 -1 4 -13 3 -25 -3z"/>
<path d="M841 1177 c-8 -10 -7 -14 2 -14 8 0 14 6 14 14 0 7 -1 13 -2 13 -2 0
-8 -6 -14 -13z"/>
<path d="M1256 1173 c-6 -14 -5 -15 5 -6 7 7 10 15 7 18 -3 3 -9 -2 -12 -12z"/>
<path d="M2216 932 c-3 -4 4 -9 15 -9 23 -2 25 3 4 10 -8 4 -16 3 -19 -1z"/>
</g>
</svg>
