<?xml version="1.0" standalone="no"?>
<!DOCTYPE svg PUBLIC "-//W3C//DTD SVG 20010904//EN"
 "http://www.w3.org/TR/2001/REC-SVG-20010904/DTD/svg10.dtd">
<svg version="1.0" xmlns="http://www.w3.org/2000/svg"
 width="96.000000pt" height="96.000000pt" viewBox="0 0 96.000000 96.000000"
 preserveAspectRatio="xMidYMid meet">
<metadata>
Created by potrace 1.11, written by Peter Selinger 2001-2013
</metadata>
<g transform="translate(0.000000,96.000000) scale(0.100000,-0.100000)"
fill="#000000" stroke="none">
<path d="M172 669 c-39 -11 -106 -78 -120 -119 -6 -15 -9 -54 -8 -84 3 -70 43
-130 107 -163 37 -19 61 -22 147 -23 l102 0 0 39 0 39 -105 4 c-103 3 -105 4
-137 36 -28 28 -33 39 -33 82 0 43 5 54 33 82 32 32 34 33 137 36 l105 4 0 39
0 39 -97 -1 c-54 0 -113 -5 -131 -10z"/>
<path d="M700 618 l-24 -32 39 -30 c22 -17 57 -48 80 -68 37 -33 40 -41 40
-87 0 -44 -4 -55 -33 -83 -28 -28 -39 -33 -81 -33 -43 0 -56 6 -111 48 -34 27
-68 51 -75 53 -7 3 -22 -8 -34 -25 l-22 -30 75 -56 c98 -74 146 -87 229 -64
45 12 101 66 123 117 19 46 13 128 -13 172 -10 17 -45 52 -77 78 -99 78 -90
75 -116 40z"/>
<path d="M280 480 l0 -40 180 0 180 0 0 40 0 40 -180 0 -180 0 0 -40z"/>
</g>
</svg>
